PathFileType	4	(X/Y/Z)	s04c0201.trc
DataRate	CameraRate	NumFrames	NumMarkers	Units	OrigDataRate	OrigDataStartFrame	OrigNumFrames
200	200	6	51	mm	200	750	2000
Frame#	Time	racr			lacr			c7			jug			rlel			rdr			llel			ldr			s2			lic			ric			lasi			rasi			rpsi			lpsi			rgt			lgt			rth1			rth2			rth3			rth4			rlfc			rmfc			rsh1			rsh2			rsh3			rsh4			rlmal			rmmal			rcal			rtoe			rmt5			lth1			lth2			lth4			lth3			llfc			lmfc			lsh1			lsh2			lsh3			lsh4			llmal			lmmal			lcal			ltoe			lmt1			lmt5			SBIKE			LBIKE			RBIKE			
		X1	Y1	Z1	X2	Y2	Z2	X3	Y3	Z3	X4	Y4	Z4	X5	Y5	Z5	X6	Y6	Z6	X7	Y7	Z7	X8	Y8	Z8	X9	Y9	Z9	X10	Y10	Z10	X11	Y11	Z11	X12	Y12	Z12	X13	Y13	Z13	X14	Y14	Z14	X15	Y15	Z15	X16	Y16	Z16	X17	Y17	Z17	X18	Y18	Z18	X19	Y19	Z19	X20	Y20	Z20	X21	Y21	Z21	X22	Y22	Z22	X23	Y23	Z23	X24	Y24	Z24	X25	Y25	Z25	X26	Y26	Z26	X27	Y27	Z27	X28	Y28	Z28	X29	Y29	Z29	X30	Y30	Z30	X31	Y31	Z31	X32	Y32	Z32	X33	Y33	Z33	X34	Y34	Z34	X35	Y35	Z35	X36	Y36	Z36	X37	Y37	Z37	X38	Y38	Z38	X39	Y39	Z39	X40	Y40	Z40	X41	Y41	Z41	X42	Y42	Z42	X43	Y43	Z43	X44	Y44	Z44	X45	Y45	Z45	X46	Y46	Z46	X47	Y47	Z47	X48	Y48	Z48	X49	Y49	Z49	X50	Y50	Z50	X51	Y51	Z51	
750	3.7500	479.163125	1384.670422	-143.543177	470.649742	1376.100473	-411.692318	441.256165	1441.746393	-278.595601	438.252192	1284.696305	-281.458879	443.689576	1094.295203	4.048018	672.686438	949.560115	-115.441033	449.979106	1122.141518	-568.489785	665.113754	943.659517	-481.703858	-97.175995	1164.774120	-317.870630	75.684263	1180.011548	-461.359069	37.408907	1200.485602	-141.340519	106.378313	1140.272579	-410.221519	92.764857	1160.900964	-181.295870	-76.681921	1216.035050	-277.404415	-71.260738	1212.580879	-350.574902	3.380756	1143.459981	-122.881549	39.327884	1070.843070	-483.502734	141.948633	1050.485077	-109.666769	225.568801	1023.360104	-120.143342	284.932699	962.076459	-124.555246	242.315393	1053.221595	-136.635727	392.578320	868.580143	-147.153915	376.166584	841.411248	-258.647426	346.581618	749.296461	-117.485379	341.563456	662.351573	-128.686210	290.408639	593.251430	-132.133209	373.761064	655.135656	-151.053212	254.197476	445.191871	-132.160086	271.151982	453.820210	-217.763051	187.083670	402.245189	-167.460340	485.193220	430.725681	-164.688498	424.955740	397.106236	-106.583981	99.488800	1001.258657	-488.256193	173.744726	956.417793	-485.426911	198.063988	980.255053	-473.639994	217.166670	878.761311	-487.013544	293.654909	745.918851	-462.079903	313.459947	720.253754	-350.619424	240.148757	637.434892	-482.121579	204.035156	562.378968	-456.833380	133.633680	508.118016	-456.516037	225.573272	550.674960	-425.982859	38.676538	394.726197	-450.064434	35.074845	396.606053	-360.514547	-39.734341	418.145765	-409.243603	195.040946	222.278872	-409.030395	0.000000	0.000000	-0.000000	117.943245	238.829476	-470.716753	-187.806162	934.752602	-287.251868	-18.293525	78.987306	-484.690886	-18.384675	79.239205	-83.864742	
751	3.7550	479.519834	1384.258094	-143.171016	471.143763	1375.673952	-411.285562	441.813839	1441.520776	-277.894417	438.551943	1284.287917	-281.130441	442.709845	1093.768995	3.986013	672.243838	949.425533	-115.251232	449.448315	1121.948829	-567.800256	665.076578	943.643488	-481.715965	-96.531657	1165.362236	-316.853791	75.882062	1180.293887	-460.980278	38.150529	1200.335127	-140.976618	106.687511	1140.767267	-409.735657	94.304158	1161.366965	-180.421292	-74.197626	1215.103385	-277.739534	-71.053448	1212.775734	-350.313368	4.248200	1142.413972	-122.751089	40.659681	1071.355022	-483.235107	141.385472	1046.801412	-109.375982	224.426726	1017.955764	-120.016986	282.605471	955.747746	-124.678566	241.946387	1047.695090	-135.877855	389.537398	861.387635	-147.297647	372.578385	834.222628	-258.834150	344.832702	741.138425	-117.236671	341.363864	654.159889	-128.735049	291.174862	584.091804	-131.352425	373.336120	647.313883	-150.645587	257.095608	435.180845	-131.163408	273.910672	444.086273	-217.174422	190.295649	391.919519	-166.142514	488.509973	421.017654	-165.131966	428.622559	387.385835	-106.688345	101.010858	1002.451755	-487.702109	175.693993	958.387731	-485.022110	199.843451	982.429028	-473.295671	219.880068	881.035159	-486.639889	298.056348	750.278238	-460.931173	317.572826	724.340005	-349.739358	242.894773	643.221489	-481.637443	205.373863	568.847666	-456.314365	133.993272	515.915951	-456.088553	226.672409	556.635053	-425.510047	37.110201	404.415520	-449.778046	33.250723	406.895234	-360.649016	-41.173338	428.839975	-409.276284	191.417113	230.721922	-409.282913	0.000000	0.000000	-0.000000	114.593016	248.020397	-470.740813	-187.663563	934.730193	-286.692520	-18.274791	78.995691	-484.677009	-18.373234	79.227806	-83.850331	
752	3.7600	480.029640	1383.913122	-142.865648	471.911650	1375.347452	-411.032789	442.390886	1441.366047	-277.399552	438.927422	1284.035819	-280.965538	441.865794	1093.163601	3.760276	671.887305	949.292937	-115.049636	449.232620	1121.873826	-567.258087	665.270771	943.685261	-481.704844	-95.806497	1165.931694	-316.261340	76.221721	1180.922163	-460.759622	38.978912	1200.246531	-140.215577	107.220729	1141.451583	-409.579100	93.697784	1162.131210	-182.414293	-78.317619	1217.941118	-272.910195	-70.807934	1213.060682	-349.644137	5.133278	1141.974677	-122.646497	41.721496	1072.308204	-483.147516	140.638029	1043.572306	-109.115251	223.108214	1013.097382	-119.844504	280.111304	949.961589	-124.967382	241.278490	1042.762632	-135.301129	386.367886	854.380556	-147.667794	368.939854	827.094404	-259.124928	343.369140	732.899810	-116.725121	340.898265	646.013177	-128.266350	291.823678	575.238463	-130.760688	372.958833	639.560779	-150.357950	259.709992	425.630609	-129.948743	276.496709	435.502590	-215.087335	193.028447	382.151293	-164.222327	491.414219	411.067809	-165.723261	431.912807	377.419276	-106.792924	102.248456	1003.752662	-487.400979	177.335510	960.331441	-484.777954	201.290597	984.703557	-473.064766	222.319610	883.506925	-486.378829	302.101926	754.712853	-460.043721	321.545842	728.390539	-348.948167	245.455260	649.123925	-481.158333	206.648637	575.309808	-455.861944	134.366700	523.714355	-455.634733	227.741112	562.591521	-425.214886	35.736459	414.159194	-449.491800	32.463389	416.246231	-360.418867	-42.606889	439.330832	-409.048618	187.856283	238.755324	-408.343362	0.000000	0.000000	-0.000000	111.764557	257.500404	-470.787434	-187.576434	934.762570	-286.634822	-18.278114	79.002661	-484.663906	-18.365349	79.229524	-83.846157	
753	3.7650	480.556293	1383.646555	-142.761180	472.564925	1374.889873	-410.741017	443.154726	1441.270541	-276.884786	439.392807	1283.774917	-280.755481	441.285992	1092.747460	3.510065	671.673424	949.129479	-114.827944	449.331107	1121.846700	-566.908312	665.729579	943.709246	-481.607784	-95.186029	1166.820806	-315.589288	76.508104	1181.759422	-460.492749	39.838916	1200.502743	-139.827773	107.583798	1142.216942	-409.404873	94.718202	1162.709594	-182.107703	-77.162301	1218.391320	-272.409861	-70.298954	1213.886349	-349.052967	5.940849	1141.871592	-122.567594	42.402180	1073.660440	-483.059371	139.686884	1040.600856	-109.051543	221.630607	1008.741082	-119.528035	277.610676	944.763143	-125.140155	240.335390	1038.260372	-134.889370	382.997867	847.522814	-147.937441	366.944267	820.524508	-259.620998	342.107033	724.721557	-116.046997	340.567509	637.893007	-127.751986	292.183071	566.525589	-129.713391	372.616029	631.757217	-150.156926	262.053938	416.466318	-128.547475	279.027747	425.709942	-214.496016	195.744921	372.539351	-162.530877	494.151430	400.734832	-166.040299	434.806908	367.280246	-106.748344	103.190331	1005.082529	-487.222551	178.740519	962.468310	-484.544462	202.414645	987.098700	-472.814690	224.522365	886.144770	-486.136066	306.110753	759.281122	-459.249902	325.275201	732.788690	-348.345066	247.986033	655.001410	-480.840311	207.970196	581.922444	-455.540626	134.865757	531.394202	-455.224604	228.831011	568.735644	-424.857021	34.509827	423.817136	-449.305632	31.780084	426.077812	-360.698290	-43.800588	449.730473	-409.003571	185.478832	248.135091	-408.377558	0.000000	0.000000	-0.000000	109.438920	267.085797	-470.794009	-187.562397	934.754956	-286.527197	-18.296026	79.031900	-484.660196	-18.354377	79.228417	-83.843959	
754	3.7700	481.163127	1383.495111	-142.794758	473.361083	1374.630958	-410.695053	443.934998	1441.260290	-276.643828	439.988553	1283.611064	-280.656294	440.927502	1092.481873	3.225981	671.559684	948.988049	-114.602055	449.764282	1121.837615	-566.680790	666.302485	943.777916	-481.440694	-95.133774	1168.129059	-315.328141	76.687274	1182.647800	-460.135513	40.918527	1200.874113	-139.362514	107.782596	1142.947173	-409.172930	95.797801	1163.225991	-181.771459	-76.054769	1218.985523	-271.672023	-69.863595	1214.860413	-348.353791	6.714802	1142.041020	-122.475442	42.887393	1075.255241	-482.961145	138.777944	1038.030628	-108.906332	220.211785	1004.975703	-119.634374	274.877180	940.307123	-125.128263	239.402535	1033.998581	-134.709662	379.361968	840.481513	-147.972949	360.663828	813.216332	-259.413383	340.962391	716.744672	-115.298565	340.309843	629.712449	-127.068241	293.047793	557.883231	-128.831202	371.578958	623.819941	-150.209350	264.306924	407.156936	-127.135455	280.581565	415.970163	-213.656208	197.816107	363.500387	-160.806309	496.527530	390.086554	-166.632241	437.369031	356.920285	-106.952443	103.925156	1006.583536	-487.155476	179.933042	964.863567	-484.332018	203.297580	989.685545	-472.514484	226.639067	888.962930	-485.896558	310.034756	763.958458	-458.627527	329.132275	736.960854	-347.929760	250.497167	660.901936	-480.561589	209.270577	588.378811	-455.197606	135.247050	539.200872	-454.745627	230.558797	575.311561	-424.904106	33.442193	433.447412	-449.134613	30.342071	436.146958	-360.215109	-44.977739	460.083150	-408.965381	183.638028	257.855210	-408.315430	0.000000	0.000000	-0.000000	107.624557	276.998380	-470.848318	-187.468695	934.823480	-286.459206	-18.274795	79.061038	-484.667093	-18.346951	79.232769	-83.826333	
755	3.7750	481.882637	1383.310464	-142.911628	473.975182	1374.416719	-410.639965	444.914777	1441.339225	-276.508403	440.655916	1283.520581	-280.843621	440.710369	1092.384815	2.882563	671.505561	948.871555	-114.438341	450.523682	1121.812146	-566.538667	667.008081	943.855112	-481.233471	-94.743593	1169.225613	-314.939601	76.864955	1183.680119	-459.758271	42.070946	1201.349022	-138.858413	107.935319	1143.748923	-408.951393	96.917561	1163.746926	-181.350252	-74.865367	1219.850179	-271.095619	-69.206977	1216.000899	-347.762687	7.474951	1142.432381	-122.382624	43.121644	1077.083312	-482.817172	137.869510	1035.851515	-108.788652	218.803347	1001.339716	-119.685282	272.357462	935.653685	-125.114079	238.394771	1030.015516	-134.675131	375.471196	833.422904	-147.946329	355.179985	805.812060	-258.564505	339.020255	708.801941	-114.487227	339.925975	621.732153	-126.481220	293.494825	549.313038	-127.683510	370.795101	616.311836	-150.273149	266.290227	398.233893	-125.756776	282.034059	406.696653	-212.342585	199.562570	355.095489	-158.826997	498.434431	379.210350	-167.401574	439.500030	346.780892	-107.092811	104.472911	1008.168237	-486.994670	181.034555	967.427636	-484.152914	204.034704	992.560326	-472.123775	228.652428	892.161907	-485.799202	314.291278	769.245003	-458.836943	332.998192	741.369792	-347.716636	253.137919	666.693224	-480.508502	210.805460	595.013249	-454.884606	135.921820	546.879093	-454.412544	231.677267	581.748900	-424.421085	32.575422	443.243142	-448.927582	29.391423	446.221546	-360.071411	-45.916046	470.270721	-408.802649	182.322234	268.034420	-408.298413	0.000000	0.000000	-0.000000	106.400337	287.008125	-470.951705	-187.407026	934.873040	-286.366702	-18.256286	79.087535	-484.639251	-18.335314	79.227681	-83.820453	
